<svg xmlns="http://www.w3.org/2000/svg" width="850.37" height="607.23" viewBox="0 0 224.99 160.66">
  <path fill="#193bc0" d="M9.49 91.99 0 14.3l48.72-4.98 3.4 10.76 21.06-2.22 1.46 4.17 37.57-4.36.77-13.5 26.6-2.56.5 3.54L187.5 0l2.75 21.57 15.26-1.62 19.47 49.52-122.37 91.2z"/>
  <path fill="#fff" d="m182.68 6.29-41.15 4.32 1.92 15.94 9.49-.96 6.1 50.84 18.35-1.96-6.12-50.82 13.35-1.45zM135.4 7.73l-16.7 1.79 3.83 31.33-1.58.18-15.78-16.74-17.51 1.95 7.07 56.9 16.72-1.77-3.53-28.78 1.6-.16 18.02 22.37 15.91-1.62zm-91.5 7.7L6.27 19.3l8.2 67.23 16.74-1.77-3.23-27.5 16.24-1.62-1.62-12.7-16.22 1.6-1.27-10.9 20.73-2.28zm25.4 8.54-15.58 1.62-11.75 63.03 14.48-1.6 2.26-16.42 12.53-1.44 3.39 11.11 14-1.47zm132.53 2.1L183.5 28l.3 40.84 11.25-1.11-.45-8.54 8-.97 3.08 8.36 11.57-1.28zm-6.27 11.88 3.54 10.96-4.7.65-.46-11.46zM64 45.52l3.39 11.1-6.78.8 1.78-11.75z"/>
</svg>