<?xml version="1.0" encoding="UTF-8" standalone="no"?>
<svg xmlns="http://www.w3.org/2000/svg" xml:space="preserve" width="799.61" height="799.59" viewBox="0 0 211.56 211.56">
  <path fill="#fff" d="M209.58 105.78a103.8 103.8 0 0 1-103.8 103.8 103.8 103.8 0 0 1-103.8-103.8 103.8 103.8 0 0 1 103.8-103.8 103.8 103.8 0 0 1 103.8 103.8Z" color="#000"/>
  <path d="M105.78 0C47.38 0 0 47.38 0 105.78s47.38 105.78 105.78 105.78 105.78-47.38 105.78-105.78S164.18 0 105.78 0zm0 3.97a101.78 101.78 0 0 1 101.81 101.8A101.78 101.78 0 0 1 105.78 207.6 101.78 101.78 0 0 1 3.97 105.78 101.78 101.78 0 0 1 105.77 3.97z" color="#000"/>
  <path d="M157 85.13c-12.07 0-18.38 5.11-18.38 12.95 0 2.5 1.55 6.08 4.16 7.77 4.57 2.96 8.4 3.4 13.65 4.68 3.01.74 6.28 1.59 6.28 3.51 0 1.6-1.62 2.79-5.9 2.79-8.48 0-10.15-4.47-10.15-4.47l-10.86 3.99c2.3 7.31 13.55 9.82 21 9.82 7.97 0 12.57-1.7 15.5-4.5 3.23-3.08 3.55-6.06 3.55-8.89 0-2.5-.98-5.82-5.78-8.6-3.5-2.01-10.56-3.25-13.64-3.9-1.16-.26-4.89-.8-4.89-3 0-1.64 2.33-2.53 5.46-2.53 6.18 0 7.17 4.18 7.17 4.18l10.9-4.01c-1.7-7.65-10.66-9.79-18.07-9.79zm36.02.19-13.07 4.8v34.5h13.08Zm-174.93.72v38.57h13.08v-7.19a166.93 166.93 0 0 0 14.75-5.59c9.14-4.16 9.53-9.37 9.53-13.7 0-5.37-4-12.09-15.15-12.09h-9.13Zm41.1 0v38.57h34v-9.5H72.27V110H88.7v-9.49H72.27v-5h20.55v-9.48Zm39.67 0v38.57h13.08v-7.19a166.93 166.93 0 0 0 14.75-5.59c9.14-4.16 9.53-9.37 9.53-13.7 0-5.37-4-12.09-15.15-12.09h-9.13Zm-67.69 9.48h6.54c2.2 0 4.03 1.79 4.03 4.06 0 2.7-1.04 4.14-4.97 5.78l-5.6 2.22Zm80.77 0h6.54c2.2 0 4.03 1.79 4.03 4.06 0 2.7-1.03 4.14-4.97 5.78l-5.6 2.22z" />
  <path fill="#ff1400" d="M105.78 11.04a94.75 94.75 0 0 0-86.9 57.17c.34.12 18.82 6.66 37.48 6.66 29.15 0 64.1-11.91 101.76-11.91 19.07 0 33.18 4.72 34.62 5.22a94.75 94.75 0 0 0-86.96-57.14Z" />
  <path fill="#0e0e96" d="M105.83 200.54a94.75 94.75 0 0 0 86.91-57.16c-.34-.13-18.83-6.67-37.48-6.67-29.15 0-64.1 11.92-101.77 11.92-19.06 0-33.17-4.72-34.62-5.22a94.75 94.75 0 0 0 86.96 57.13z" />
</svg>
