<?xml version="1.0" encoding="utf-8"?>
<!-- Generator: Adobe Illustrator 16.0.0, SVG Export Plug-In . SVG Version: 6.00 Build 0)  -->
<!DOCTYPE svg PUBLIC "-//W3C//DTD SVG 1.1//EN" "http://www.w3.org/Graphics/SVG/1.1/DTD/svg11.dtd">
<svg version="1.1" id="Layer_1" xmlns="http://www.w3.org/2000/svg" xmlns:xlink="http://www.w3.org/1999/xlink" x="0px" y="0px"
	 width="365px" height="174px" viewBox="0 0 365 174" enable-background="new 0 0 365 174" xml:space="preserve">
<g>
	<path fill="#221F72" d="M352.793,140.587c2.718,0,4.932,2.213,4.932,4.932c0,2.712-2.214,4.925-4.932,4.925
		c-2.712,0-4.926-2.213-4.926-4.925C347.867,142.801,350.081,140.587,352.793,140.587 M352.793,149.332
		c2.059,0,3.659-1.686,3.659-3.813c0-2.139-1.601-3.825-3.659-3.825s-3.658,1.686-3.658,3.825
		C349.135,147.646,350.734,149.332,352.793,149.332 M350.906,142.875h1.651c1.193,0,2.328,0.281,2.328,1.525
		c0,0.929-0.607,1.508-1.164,1.594l1.325,2.053h-1.388l-1.182-1.99h-0.31v1.99h-1.262V142.875z M352.157,145.026h0.625
		c0.314,0,0.831-0.012,0.831-0.562c0-0.528-0.517-0.556-0.831-0.556h-0.625V145.026z"/>
	<path fill="#FFFFFF" d="M345,27.577c0-0.224-0.022-0.453-0.068-0.683c-0.597-3.32-5.729-7.059-9.198-8.601
		c0,0-22.369-12.552-86.426-8.103c-36.567,2.552-82.476,10.717-82.476,10.717l-0.198,0.034C22.756-3.6,6.89,17.76,6.832,21.12
		v-0.005v0.005v0.018l0.018,0.607v123.441c0,0.224,0.04,0.458,0.086,0.688c0.594,3.303,5.769,7.076,9.198,8.601
		c0,0,22.377,12.553,86.438,8.097c36.564-2.54,82.47-10.711,82.47-10.711l0.194-0.035c143.881,24.543,159.754,3.183,159.811-0.177
		v0.005v-0.005v-0.017l-0.012-0.603L345,27.577z"/>
	<path fill="#221F72" d="M182.911,119.365c-1.233,0.034-2.689-0.671-3.854-2.334c-1.027-1.462-0.657-4.123-0.634-7.667
		c0.028-3.446,0.757-60.507,0.745-61.425s0.212-3.607-2.125-3.229c-2.336,0.378-17.598,3.475-20.382,3.894
		c-2.377,0.35-2.136,0.648-1.979,2.276c0.046,0.482,0.152,0.986,0.565,1.273c0.567,0.401,1.318,0.539,1.924,0.871
		c2.531,1.365,4.017,4.169,4.688,6.881c0.221,0.912,0.321,1.846,0.321,2.787c0,1.25-0.522,41.556-0.809,50.003
		c-0.206,6.141,0.763,10.264,2.959,12.604c1.597,1.709,3.968,2.575,7.245,2.655c0.493,0.011,1.021,0.011,1.557-0.018
		c5.731-0.235,9.283-2.494,11.308-4.765C186.285,121.114,184.8,119.313,182.911,119.365"/>
	<path fill="#221F72" d="M288.134,32.342c-0.229,0-0.459,0.011-0.693,0.034c-3.178,0.298-5.528,2.89-5.597,6.165
		c-0.034,2.374,1.032,4.071,2.896,6.199c1.577,1.794,1.204,3.825,1.084,4.484c-0.281,1.611-0.838,2.885-1.377,4.123l-0.08,0.184
		c-0.218,0.499-0.47,1.394,0.299,1.749c0.137,0.069,0.298,0.098,0.481,0.098c0.567,0,1.33-0.35,2.035-0.94
		c2.288-1.927,7.014-8.166,7.014-15.087C294.195,34.183,291.063,32.342,288.134,32.342"/>
	<path fill="#221F72" d="M283.96,105.15c-4.123-0.751-4.674-4.92-4.691-8.475c-0.028-4.278,0.734-16.372,1.061-27.484
		c0.201-6.818-1.101-12.07-3.854-14.943c-2.121-2.196-5.103-3.286-9.111-3.326h-0.143c-6.113,0-10.62,3.934-12.547,5.471
		c-0.149,0.115-0.287,0.229-0.401,0.315c-0.528,0.39-1.021,0.573-1.479,0.573c-0.379,0-1.635-0.166-1.646-2.333l0.081-19.032
		c-0.006-2.368-0.659-2.471-2.759-2.351c-3.928,0.235-17.18,1.749-19.267,2.082c-1.628,0.252-1.583,0.849-1.508,2.15
		c0.046,1.003-0.144,1.537,1.852,2.213c1.812,0.614,4.812,2.879,4.812,9.674c0,7.569-0.092,58.73-0.092,64.717
		c0,2.729,2.225,2.288,3.538,2.093c4.645-0.7,5.895-0.895,9.817-1.428c2.729-0.367,3.67,0,3.646-3.372
		c-0.012-2.718-0.184-36.877-0.195-37.146c0.058-6.916,3.045-13.017,7.271-13.017c0.08,0,0.166,0,0.252,0.006
		c4.277,0.195,4.69,6.302,4.628,9.909c-0.098,6.067-0.826,21.068-0.637,29.405c0.172,7.833,3.372,11.256,10.688,11.446
		c0.264,0.005,0.516,0.011,0.769,0.011c4.255,0,7.701-0.952,10.265-2.833c1.101-0.82,1.57-1.56,1.554-2.495
		C285.863,106.343,285.662,105.459,283.96,105.15"/>
	<path fill="#221F72" d="M226.497,103.137c-0.614-0.057-1.434,0.378-2.42,1.285c-2.489,2.293-5.247,3.526-8.2,3.664
		c-0.487,0.017-0.964,0.011-1.423-0.029c-7.477-0.642-11.146-8.928-10.062-22.736c1.015-11.979,4.392-19.68,9.519-20.19
		c1.428-0.138,2.649,0.373,3.48,1.451c1.176,1.52,1.594,4.117,1.21,7.518c-0.338,3.039,0.138,3.888,1.072,4.324
		c0.769,0.361,1.807,0.143,2.913-0.568c3.343-2.167,6.514-10.454,3.876-15.133c-1.582-2.781-4.782-4.513-9.002-4.88
		c-2.082-0.178-4.324-0.023-6.676,0.47c-11.6,2.42-23.258,14.777-24.514,35.002c-1.009,16.383,5.838,26.802,18.333,27.874
		c0.98,0.092,1.995,0.109,3.016,0.069c11.922-0.47,17.123-8.607,18.797-12.076c1.021-2.099,1.617-4.857,0.9-5.62
		C227.064,103.298,226.795,103.16,226.497,103.137"/>
	<path fill="#221F72" d="M146.722,71.129c-1.327-0.189-2.778-0.241-4.32-0.132c-14.611,0.992-27.886,17.289-30.226,37.106
		c-1.771,14.972,4.089,25.276,15.305,26.882c1.362,0.2,2.808,0.269,4.292,0.212c11.343-0.441,18.826-8.406,21.455-13.344
		c1.637-3.079,1.754-5.338,1.035-5.986c-0.219-0.184-0.425-0.292-0.619-0.321c-0.545-0.074-1.303,0.419-2.529,1.651
		c-0.095,0.098-0.212,0.229-0.353,0.373c-1.445,1.548-4.347,3.664-9.178,4.071c-1.009,0.08-1.989,0.057-2.931-0.075
		c-4.32-0.625-7.368-3.48-8.59-8.04c-0.188-0.55-0.166-1.152,0.052-1.646c0.152-0.35,0.477-0.814,1.139-1.061
		c1.45-0.534,3.636-1.554,6.302-2.925c5.949-3.033,16.311-9.748,18.955-20.741c0.926-3.842,0.433-7.873-1.316-10.792
		C153.462,73.485,150.532,71.679,146.722,71.129 M140.979,97.15c-2.461,2.919-5.451,5.264-9.149,7.168l-0.034,0.017
		c-0.425,0.189-0.823,0.258-1.182,0.212c-0.874-0.126-1.408-0.923-1.434-2.127c-0.074-3.836,1.142-8.888,2.38-12.185
		c2.824-7.478,7.104-11.95,10.915-11.406c0.166,0.029,0.336,0.058,0.499,0.103c1.657,0.447,2.772,1.635,3.231,3.418
		C147.175,86.175,144.979,92.397,140.979,97.15"/>
	<path fill="#221F72" d="M123.742,58.72c0.117-1.021-0.175-1.961-0.857-2.724c-0.903-1.009-2.383-1.594-4.062-1.594
		c-0.886,0-1.795,0.155-2.713,0.464c-7.475,2.541-10.729,12.822-13.435,24.136c-1.913,7.959-3.805,17.816-4.468,21.32
		c-0.123,0.648-0.206,1.089-0.246,1.296c-0.284,1.422-0.554,2.77-1.792,2.804H96.14c-1.293,0-1.703-1.681-1.897-2.489
		c-1.648-6.359-8.765-38.517-9.049-39.618c-0.745-2.947-1.313-2.896-4.003-2.597c-1.967,0.218-3.208,0.378-4.939,0.544
		c-2.689,0.252-3.475-0.097-4.011,2.196c-0.522,2.253-9.055,43.064-9.072,43.139c-0.187,0.832-0.538,2.385-1.749,2.425h-0.04
		c-1.187,0-1.511-1.25-1.726-2.076l-0.015-0.069c-0.157-0.619-9.387-30.667-9.387-30.667c-0.906-3.286,0.187-7.024,2.853-8.229
		c2.079-0.946,1.979-1.531,1.927-3.223c-0.054-2.042-1.444-1.623-2.56-1.623c-0.33,0-7.458,0-14.629-0.247
		c-7.139-0.247-15.149-2.082-15.149-2.082s-1.726-0.384-1.872,1.302c-0.164,1.846-0.465,2.512,2.643,4.244
		c1.93,1.072,5.688,3.32,8.002,9.914c1.192,3.389,16.787,58.397,17.34,60.152c0.952,2.982,1.268,4.209,3.616,4.444
		c1.763,0.172,4.306,0.252,6.101,0.298c3.642,0.098,3.799-0.075,4.699-3.842c0.943-3.957,8.624-36.969,8.661-37.112
		c0.17-0.745,0.522-2.311,1.727-2.339h0.034l0.04,0.006c1.17,0.091,1.479,1.238,1.687,1.99l0.011,0.046
		c0.207,0.734,7.997,32.926,8.803,35.73c1.221,4.278,1.603,5.356,4.274,5.041c0,0,4.685-0.264,5.854-0.407
		c2.494-0.292,2.26-0.081,3.647-4.949c0.65-2.305,1.531-6.153,2.517-10.224c1.127-4.685,2.538-10.505,4.398-17.805
		c7.054-27.674,12.209-38.213,16.953-43.672C123.051,61.214,123.584,60.125,123.742,58.72"/>
	<path fill="#221F72" d="M318.767,74.294l-0.058-0.046c-6.784-5.212-9.771-8.303-9.548-12.833c0.149-2.948,2.408-5.207,5.264-5.247
		c0.574-0.012,1.17,0.075,1.755,0.235c2.913,0.814,5.265,3.458,7.403,8.343c1.927,4.421,2.815,5.035,4.031,4.937
		c0.459-0.034,1.514-0.115,1.479-2.919c-0.023-1.8-0.052-2.339-0.167-4.146l-0.017-0.264c-0.195-3.297-0.7-5.184-3.188-7.638
		c-2.432-2.409-6.99-4.667-11.342-5.625c-1.709-0.373-3.406-0.556-5.023-0.533c-4.771,0.063-8.991,1.91-11.887,5.178
		c-2.771,3.136-4.181,7.305-4.066,12.053c0.229,9.427,7.397,15.316,13.154,20.053l0.527,0.43c7.473,6.136,9.445,9.187,8.797,13.585
		c-0.459,3.044-2.781,5.12-5.769,5.161c-0.757,0.011-1.537-0.109-2.306-0.355c-4.518-1.439-6.835-6.165-8.36-9.29
		c-0.27-0.533-0.516-1.032-0.745-1.457c-0.843-1.588-1.938-2.414-3.154-2.397c-0.613,0.006-1.256,0.224-1.869,0.619
		c-1.032,0.688-2.609,3.108-1.129,7.363c2.333,6.686,8.916,11.279,18.062,12.621c1.284,0.189,2.574,0.275,3.824,0.258
		c9.897-0.144,16.894-6.497,17.811-16.182C333.257,85.447,325.218,79.266,318.767,74.294"/>
	<path fill="#221F72" d="M345.046,151.654c0-1.863-3.234-4.926-7.305-6.451c-2.971,1.772-34.762,20.465-143.85,5.126l-8.664,1.496
		C329.128,176.381,344.989,155.009,345.046,151.654z"/>
	<path fill="#221F72" d="M6.827,21.115c0,1.864,3.088,4.925,7.162,6.451c2.959-1.771,34.756-20.465,143.844-5.126l8.739-1.508
		C22.722-3.611,6.878,17.754,6.827,21.115z"/>
	<path fill="#221F72" d="M337.735,145.198c4.076,1.531,7.305,4.593,7.305,6.457v-0.017v-0.608v-12.346c0,0,0.023-0.235-0.051-0.637
		c-0.127-0.808-0.66-2.391-2.661-4.077c-3.337-2.816-10.471-5.551-21.997-7.024c-20.305-2.604-53.018,0.763-109.386,9.937
		c-2.099,0.339-4.169,0.688-6.228,1.044c-1.364,0.235-2.729,0.47-4.082,0.717c-1.359,0.235-2.701,0.476-4.049,0.723
		c-38.225,6.956-71.153,15.385-114.636,16.721c-36.224,1.124-53.756-2.368-65.053-6.841c-5.058-1.996-8.962-5.132-10.049-9.553
		l-0.006,5.499c0,0.224,0.043,0.453,0.089,0.683c0.594,3.309,5.766,7.076,9.201,8.601c0,0,22.372,12.558,86.435,8.097
		c36.564-2.54,82.47-10.705,82.47-10.705l8.854-1.543c14.301-2.391,43.546-6.95,69.918-8.859c54.882-3.974,73.06,3.395,73.06,3.395
		S337.208,144.98,337.735,145.198"/>
	<path fill="#221F72" d="M14.003,27.554c-4.077-1.525-7.176-4.593-7.176-6.451v0.017l0.011,0.603l0.006,12.346
		c0,0-0.023,0.241,0.055,0.636c0.135,0.814,0.51,2.391,2.512,4.083c3.343,2.815,10.471,5.551,21.996,7.024
		c20.306,2.598,53.017-0.763,109.387-9.943c2.09-0.333,4.169-0.682,6.224-1.038c1.368-0.235,2.73-0.47,4.089-0.711
		c1.356-0.241,2.701-0.482,4.046-0.729c38.225-6.956,71.15-15.385,114.639-16.721c36.218-1.124,53.759,2.363,65.049,6.841
		c5.081,2.007,9.084,5.126,10.167,9.553v-5.499c0.006-0.229-0.017-0.453-0.052-0.682c-0.602-3.309-5.849-7.122-9.277-8.647
		c0,0-22.444-12.512-86.507-8.056c-36.562,2.546-82.47,10.717-82.47,10.717l-8.854,1.531c-14.299,2.403-43.546,6.956-69.912,8.859
		c-54.891,3.979-73.068-3.389-73.068-3.389S14.53,27.778,14.003,27.554"/>
</g>
</svg>
